<svg xmlns="http://www.w3.org/2000/svg" width="500" height="160" viewBox="0 0 500 160"><g fill="#7D7D7D"><path d="M189.4 44.07c0 5.74-3.33 9.3-8.6 9.3-5.2 0-8.62-3.6-8.62-9.17 0-5.66 3.47-9.23 8.85-9.23 5.02 0 8.38 3.62 8.38 9.1zm-14.46.05c0 4.34 2.34 7.17 5.88 7.17 3.47 0 5.84-2.87 5.84-7.12 0-4.4-2.27-7.17-5.84-7.17-3.5 0-5.88 2.92-5.88 7.12zM193.42 43.92c0-1.38-.03-2.75-.13-3.85h2.3c.06.54.1 1.43.1 2.1h.06c1.02-1.64 2.5-2.4 4.46-2.4 3.34 0 5.58 2.65 5.58 6.62 0 4.12-2.26 6.98-5.63 6.98-2 0-3.56-1.07-4.36-2.5h-.04c.05.5.08 2.45.08 3.2v4.34h-2.42v-14.5zm2.4 2.68c0 2.6 1.68 4.76 3.82 4.76 2.24 0 3.64-2.14 3.64-4.76 0-2.88-1.43-4.82-3.64-4.82-2.14 0-3.83 2.12-3.83 4.82zM211.18 47.16c.1 2.62 1.88 4.18 4.5 4.18 1.5 0 2.63-.36 3.8-.97l.08 2.22c-1.17.52-2.47.78-4.02.78-4.34 0-6.8-2.63-6.8-6.9 0-4.1 2.5-6.7 6.2-6.7 3.4-.02 5.57 2.05 5.57 6.43 0 .27-.02.67-.04.96h-9.28zm6.96-1.86c0-2.5-1.38-3.7-3.3-3.7-1.9 0-3.4 1.38-3.6 3.7h6.9zM226.56 42.16c.97-1.48 2.45-2.4 4.34-2.4 3.67 0 4.84 2.43 4.84 5.87v7.44h-2.43v-6.42c0-2.55-.24-4.87-3-4.87-1.27 0-2.44.74-3.1 1.86-.4.7-.6 1.68-.6 3.2v6.23h-2.43v-9.15c0-1.38-.03-2.75-.13-3.85h2.37c.06.56.1 1.4.1 2.1h.06zM254.2 35.87c-.43-.1-.87-.16-1.25-.16-1.6 0-2.2.96-2.2 3.17v1.28h3.5v1.9h-3.5v11.02h-2.4v-11h-3.07v-1.92h3.08v-1.23c0-3.1 1.07-5.22 4.23-5.22.63 0 1.14.05 1.78.2l-.18 1.97zM269.38 46.65c0 3.98-2.76 6.73-6.7 6.73-3.83 0-6.66-2.8-6.66-6.73 0-4.08 2.77-6.88 6.75-6.88 3.85 0 6.6 2.85 6.6 6.88zm-10.8 0c0 2.85 1.7 4.7 4.17 4.7 2.37 0 4.1-1.87 4.1-4.7 0-2.9-1.73-4.87-4.18-4.87-2.37 0-4.08 2-4.08 4.87zM275.42 42.26c.74-1.47 2-2.5 3.65-2.5.5 0 .92.06 1.24.18v2.27c-.3-.12-.72-.2-1.28-.2-2.25 0-3.6 1.87-3.6 5.18v5.9H273V43.9c0-1.38-.03-2.75-.13-3.85h2.4c.08.67.1 1.53.1 2.2h.05zM292.84 53.07h-2.6v-17.8h2.6v17.8zM300.06 42.16c.97-1.48 2.45-2.4 4.33-2.4 3.66 0 4.84 2.43 4.84 5.87v7.44h-2.43v-6.42c0-2.55-.24-4.87-3-4.87-1.27 0-2.44.74-3.1 1.86-.4.7-.62 1.68-.62 3.2v6.23h-2.4v-9.15c0-1.38-.04-2.75-.14-3.85h2.37c.06.56.1 1.4.1 2.1h.06zM316 42.16c.96-1.48 2.44-2.4 4.33-2.4 3.67 0 4.84 2.43 4.84 5.87v7.44h-2.42v-6.42c0-2.55-.25-4.87-3-4.87-1.28 0-2.45.74-3.12 1.86-.4.7-.6 1.68-.6 3.2v6.23h-2.43v-9.15c0-1.38-.02-2.75-.13-3.85h2.37c.05.56.1 1.4.1 2.1h.05zM342.06 46.65c0 3.98-2.76 6.73-6.68 6.73-3.85 0-6.68-2.8-6.68-6.73 0-4.08 2.78-6.88 6.76-6.88 3.85 0 6.6 2.85 6.6 6.88zm-10.78 0c0 2.85 1.68 4.7 4.15 4.7 2.37 0 4.1-1.87 4.1-4.7 0-2.9-1.73-4.87-4.18-4.87-2.37 0-4.07 2-4.07 4.87zM348.82 48c.28.8.7 2.24.92 3.14h.05c.25-.9.7-2.38.96-3.14l2.65-7.93h2.46l-4.77 13h-2.87l-4.7-13h2.64l2.65 7.93zM358.77 40.86c1.23-.74 2.8-1.1 4.34-1.1 3.8 0 5.23 2.2 5.23 5.16 0 1.65-.05 3.7-.05 4.22 0 1.43.05 3 .15 3.93h-2.17c-.02-.2-.05-.7-.05-1.07 0-.33.04-.8.07-1.15h-.06c-.88 1.56-2.3 2.4-4.32 2.4-2.75 0-4.54-1.53-4.54-3.93 0-2.7 2.45-4.23 6.84-4.23.53 0 1.25.02 1.83.07v-.1c0-2.2-1.1-3.32-3.3-3.32-1.33 0-2.73.5-3.77 1.25l-.16-2.14zm5.94 5.97c-3.2 0-4.78.76-4.78 2.5 0 1.27 1 2.03 2.47 2.03 1.44 0 2.67-.73 3.23-1.9.28-.6.4-1.43.4-2.58-.27-.03-.73-.05-1.32-.05zM376.22 40.15h3.5v1.9h-3.5v5.72c0 2.06.27 3.5 2.24 3.5.5 0 .94-.1 1.4-.32l.08 1.92c-.6.23-1.33.36-2.07.36-3.28 0-4.05-2-4.05-4.8v-6.37h-2.98v-1.9h2.98v-3.07l2.4-.83v3.88zM385.52 37.73h-2.7v-2.68h2.7v2.68zm-.13 15.34h-2.46v-13h2.45v13zM402.38 46.65c0 3.98-2.75 6.73-6.68 6.73-3.85 0-6.68-2.8-6.68-6.73 0-4.08 2.78-6.88 6.76-6.88 3.85 0 6.6 2.85 6.6 6.88zm-10.78 0c0 2.85 1.68 4.7 4.15 4.7 2.37 0 4.1-1.87 4.1-4.7 0-2.9-1.73-4.87-4.17-4.87-2.38 0-4.08 2-4.08 4.87zM408.4 42.16c.97-1.48 2.45-2.4 4.33-2.4 3.67 0 4.84 2.43 4.84 5.87v7.44h-2.4v-6.42c0-2.55-.27-4.87-3.02-4.87-1.28 0-2.45.74-3.1 1.86-.42.7-.62 1.68-.62 3.2v6.23H406v-9.15c0-1.38-.02-2.75-.12-3.85h2.37c.05.56.1 1.4.1 2.1h.05zM185.52 71.3v31.68h.3l25.14-31.7h15.1l-25.56 32.33 33.1 36.32h-16.98l-31.1-33.7v33.7h-13.27V71.3h13.27zM251.83 71.3l40.77 47.9V71.3h12.98v68.62h-11.4l-41.03-48.68v48.68h-12.97V71.3h11.65zM333.77 71.3v68.62H320.5V71.3h13.27zM360.64 71.3l22.55 27.06 22.54-27.07h11.84v68.62H404.3v-48.2h-.38l-19.85 24.18h-1.87l-19.84-24.17h-.4v48.2H348.7V71.28h11.94zM476.74 71.3v10.36h-31.1v18.02h29.77v10.37h-29.76v19.5h31.8v10.37h-45.07V71.3h44.37z"/></g><path fill="#FFD800" d="M87.38 20.32l-69.06 119.6h138.1L87.38 20.32zM71.65 125.66V80l1.42-6.35 39.55 22.83 4.78 4.4-39.55 22.83-6.2 1.95zM73.67 71l1.9-8.58 28.26 25.98L73.67 71zm-4.62 55.47l-8.37 2.62 8.37-37.46v34.83zm50.36-23.75l6.47 5.94-36.63 11.48 30.17-17.42zM76.8 59.1l2.7-7.2 32.05 39.16L76.78 59.1zM57.2 129.72l-7.58 1.24L67.5 83.64l-10.3 46.08zm70.95-18.36l4.86 5.94-49.9 8.18 45.05-14.12zM80.6 47.1l2.82-5.76 34.2 51L80.6 47.08zm-35.7 85.3l-6.4.44 27.06-55.12L44.9 132.4zm91.73-11.73l3.57 5.32-61.26 4.12 57.7-9.45zm-14.8-30.24L84.8 35.2l2.58-4.46 34.45 59.7zM61.8 75.03l-29.3 59.69h-5.16l34.47-59.7zm16.66 59.69l66.36-4.47 2.58 4.46H78.45z"/><path fill="#7D7D7D" d="M477.4 41.46c0 .95-.16 1.82-.5 2.6-.33.78-.8 1.45-1.36 2s-1.23 1-2 1.3-1.53.46-2.36.46c-.92 0-1.76-.16-2.52-.5-.77-.3-1.43-.75-1.98-1.32-.55-.57-.98-1.24-1.3-2.02s-.46-1.6-.46-2.52c0-.95.17-1.82.5-2.6.34-.78.8-1.45 1.37-2 .56-.56 1.22-1 1.98-1.3.76-.3 1.56-.46 2.4-.46.83 0 1.62.15 2.37.46.76.3 1.42.74 2 1.3s1.02 1.22 1.35 2c.34.78.5 1.65.5 2.6zm-1.36 0c0-.77-.12-1.48-.37-2.13s-.6-1.2-1.04-1.66c-.44-.47-.96-.83-1.55-1.08-.6-.27-1.22-.4-1.9-.4-.7 0-1.33.13-1.93.4s-1.1.6-1.56 1.07-.8 1.02-1.04 1.66-.38 1.36-.38 2.13c0 .72.12 1.4.34 2.04s.56 1.2.98 1.67c.43.47.94.85 1.54 1.12.6.27 1.28.4 2.04.4.68 0 1.3-.1 1.9-.37.6-.26 1.1-.6 1.55-1.08.44-.47.8-1.02 1.04-1.66.25-.65.37-1.36.37-2.14zm-6.12 3.64h-1.15v-7.04h2.67c.85 0 1.5.16 1.92.47.43.32.64.84.64 1.55 0 .64-.17 1.1-.52 1.4-.35.3-.8.47-1.3.52l1.96 3.1h-1.3l-1.83-3h-1.08v3zm1.3-4c.2 0 .42 0 .6-.02.2-.02.4-.07.53-.15.15-.08.27-.2.36-.33.1-.14.15-.34.15-.6 0-.22-.05-.4-.15-.5-.1-.14-.22-.23-.36-.3s-.32-.1-.5-.13c-.18-.02-.35-.02-.52-.02h-1.4v2.05h1.3z"/></svg>